<svg width="64" height="64" viewBox="0 0 64 64" fill="none" xmlns="http://www.w3.org/2000/svg">
  <rect width="64" height="64" rx="16" fill="#AB9FF2"/>
  <path d="M11 38.2C11 24.5 20.7 14 34.7 14C47.6 14 56 22.7 56 34.4C56 42.5 51.6 48 45.9 48C42.3 48 40 46.2 39.2 43.3C36.8 46.6 33.2 48 28.9 48H13.9C12.1 48 11 46.7 11 45V38.2Z" fill="white"/>
  <path d="M43.5 31.8C45.4 31.8 46.8 30.1 46.8 27.8C46.8 25.6 45.4 23.8 43.5 23.8C41.7 23.8 40.2 25.6 40.2 27.8C40.2 30.1 41.7 31.8 43.5 31.8Z" fill="#AB9FF2"/>
  <path d="M52.4 31.8C54.2 31.8 55.7 30.1 55.7 27.8C55.7 25.6 54.2 23.8 52.4 23.8C50.5 23.8 49.1 25.6 49.1 27.8C49.1 30.1 50.5 31.8 52.4 31.8Z" fill="#AB9FF2"/>
</svg>
